# xmcd
#
# Track frame offsets:
#	150
#	10725
#	16557
#	32881
#	56259
#	77120
#	86031
#	109761
#	120797
#	136327
#	153928
#	171740
#	190623
#	211953
#	231856
#
# Disc length: 3348 seconds
#
# Revision: 1
# Processed by: cddbd v1.5.2PL0 Copyright (c) Steve Scherf et al.
# Submitted via: audiograbber 1.83.01
#
DISCID=b10d120f
DTITLE=Ralph Stanley - Live at the Bottom Line (6-12-2002)
DYEAR=2012
DGENRE=Bluegrass
TTITLE0=O Death
TTITLE1=Band Intros
TTITLE2=Girl from the Green Briar Shore
TTITLE3=False-Hearted
TTITLE4=Henry Lee
TTITLE5=I'll Remember You, Love
TTITLE6=Lift Him Up
TTITLE7=Wild Bill Jones
TTITLE8=Hemlocks and Primroses
TTITLE9=Look On and Cry
TTITLE10=Calling You
TTITLE11=Pretty Polly
TTITLE12=Great High Mountain
TTITLE13=Man of Constant Sorrow
TTITLE14=Amazing Grace
EXTD=
EXTT0=
EXTT1=
EXTT2=
EXTT3=
EXTT4=
EXTT5=
EXTT6=
EXTT7=
EXTT8=
EXTT9=
EXTT10=
EXTT11=
EXTT12=
EXTT13=
EXTT14=
PLAYORDER=
